<svg width="110" height="49" viewBox="0 0 110 49" fill="none" xmlns="http://www.w3.org/2000/svg">
<g id="Group 4">
<g id="Vector">
<path d="M65.8935 0L59.6429 6.20831L65.8935 12.4166L72.1441 6.20831L65.8935 0Z" fill="#FF3233"/>
<path d="M56.4493 25.0572L61.1472 20.391C62.4432 19.1038 62.4432 17.0121 61.1472 15.7249C59.8512 14.4377 57.7453 14.4377 56.4493 15.7249L56.4449 15.7293C56.3968 15.6727 56.3442 15.6162 56.2873 15.564C54.9913 14.2768 52.8854 14.2768 51.5894 15.564C50.2934 16.8512 50.2934 18.9429 51.5894 20.2301C51.642 20.2823 51.6989 20.3345 51.7558 20.3867L51.7514 20.391L56.4493 25.0572Z" fill="#FF3233"/>
<path d="M80.5123 18.0124C80.4598 17.9602 80.4029 17.908 80.346 17.8558L80.3503 17.8514L75.6524 13.1853L70.9546 17.8514C69.6586 19.1387 69.6586 21.2304 70.9546 22.5176C72.1367 23.6917 73.9799 23.783 75.2803 22.8176V22.9611C75.2803 23.1438 75.2628 23.3264 75.2278 23.5047C75.1314 23.97 74.8775 24.805 74.2864 25.0572H76.9484C76.3574 24.805 76.1078 23.9744 76.0071 23.5047C75.9677 23.3264 75.9545 23.1438 75.9545 22.9611V22.7959C77.2593 23.957 79.2558 23.9265 80.5123 22.6828C81.8127 21.3913 81.8127 19.3039 80.5123 18.0124Z" fill="#FF3233"/>
</g>
<g id="Vector_2">
<path d="M57.3687 31.7149V30.232C58.0035 30.1277 58.5027 29.9885 58.8748 29.8146C58.8748 29.8146 65.4641 27.6576 65.6655 19.8257H66.6944C66.9352 27.3445 72.916 29.8146 72.916 29.8146C73.2837 29.9885 73.7872 30.1277 74.4221 30.232V31.7149H57.3687Z" fill="#F5F5F7"/>
<path d="M4.07181 24.1613C4.44834 25.9399 5.07444 27.2663 5.95447 28.1403C6.83451 29.0144 8.1261 29.4536 9.82488 29.4536C10.7137 29.4536 11.5105 29.3058 12.2154 29.0057C12.9247 28.7057 13.4895 28.223 13.9186 27.5576C14.3476 26.8923 14.5622 26.0573 14.5622 25.0571C14.5622 24.1309 14.3914 23.3264 14.0412 22.648C13.6953 21.9696 13.1392 21.3216 12.373 20.7085C11.6068 20.0953 10.5385 19.4474 9.16813 18.7559C7.99475 18.1732 6.93521 17.5687 5.98512 16.9382C5.03503 16.312 4.22943 15.6205 3.55955 14.8639C2.88967 14.1115 2.37304 13.2853 2.00088 12.3851C1.63311 11.4893 1.44922 10.4804 1.44922 9.35845C1.44922 7.51897 1.90894 5.95779 2.82838 4.67494C3.74782 3.38773 5.07444 2.41363 6.81262 1.74829C8.55079 1.08294 10.5648 0.752441 12.8503 0.752441C14.19 0.752441 15.4685 0.82202 16.69 0.965526C17.9072 1.10903 19.2995 1.35691 20.8669 1.71785V8.2191H17.7758C17.4912 7.04061 17.1235 6.1013 16.6813 5.40551C16.2391 4.70973 15.683 4.20093 15.0219 3.87043C14.3608 3.53994 13.5245 3.37904 12.5175 3.37904C11.6594 3.37904 10.8932 3.52689 10.2145 3.82695C9.53591 4.12701 9.00176 4.57057 8.61209 5.16199C8.22242 5.75341 8.0254 6.46659 8.0254 7.30153C8.0254 8.16692 8.19615 8.91924 8.53328 9.55414C8.87041 10.189 9.43958 10.8109 10.2364 11.4154C11.0333 12.0198 12.1935 12.7113 13.7128 13.4897C15.5648 14.4464 17.0184 15.3857 18.0823 16.3033C19.1419 17.2208 19.9256 18.2254 20.4291 19.3082C20.9326 20.391 21.1865 21.6521 21.1865 23.0872C21.1865 24.9267 20.7575 26.5226 19.8993 27.8751C19.0412 29.2275 17.7934 30.2668 16.1515 30.9931C14.5096 31.7193 12.6138 32.0802 10.4641 32.0802C8.92733 32.0802 7.32925 31.9933 5.6655 31.8237C4.00176 31.6541 2.44309 31.4018 0.980741 31.0713V24.1613H4.07181Z" fill="#F5F5F7"/>
<path d="M36.8214 1.11339V2.59194C36.2785 2.7398 35.8494 2.9007 35.5342 3.07464C35.2189 3.24424 34.9738 3.48342 34.7986 3.77913C34.6279 4.07918 34.514 4.46187 34.4615 4.93152C34.409 5.40118 34.3827 5.99695 34.3827 6.71448V29.0492H38.761C39.6322 29.0492 40.3328 28.9144 40.8582 28.6448C41.3836 28.3752 41.8389 27.9621 42.2242 27.4011C42.6095 26.8401 42.9378 26.1095 43.2181 25.205C43.4983 24.3005 43.7172 23.4525 43.8836 22.661H46.9746V31.7193H24.9738V30.2408C25.5298 30.0929 25.972 29.9277 26.296 29.7494C26.62 29.5711 26.8608 29.3275 27.0184 29.0188C27.176 28.7144 27.2767 28.323 27.3249 27.8533C27.3687 27.3837 27.3949 26.7879 27.3949 26.0704V6.76231C27.3949 6.05783 27.3774 5.47076 27.338 4.9924C27.2986 4.51405 27.2023 4.12702 27.0447 3.82696C26.8871 3.5269 26.6463 3.28338 26.3223 3.09639C25.9983 2.90939 25.5517 2.7398 24.9781 2.59194V1.11339H36.8214Z" fill="#F5F5F7"/>
<path d="M90.0657 31.715V30.2321C90.7005 30.1277 91.1996 29.9885 91.5718 29.8146C91.944 29.645 92.2154 29.3971 92.3993 29.084C92.5788 28.7709 92.6926 28.3708 92.7408 27.8794C92.7846 27.3924 92.8109 26.7879 92.8109 26.0704V3.66607H90.9764C90.07 3.66607 89.3783 3.77044 88.8923 3.97918C88.4107 4.18791 87.9904 4.51841 87.6357 4.97067C87.2811 5.42293 86.9746 6.02305 86.7207 6.77972C86.4623 7.53638 86.2522 8.25392 86.0858 8.92796H82.986V1.03513H109.623V8.92361H106.524C106.239 7.90602 106.011 7.1537 105.845 6.67535C105.679 6.197 105.495 5.78822 105.289 5.44902C105.083 5.11418 104.869 4.83151 104.645 4.60538C104.418 4.37925 104.177 4.20096 103.919 4.06615C103.66 3.93134 103.341 3.83132 102.955 3.76174C102.57 3.69216 102.071 3.66172 101.449 3.66172H99.8205V26.0704C99.8205 26.8662 99.8424 27.4663 99.8905 27.8794C99.9343 28.2926 100.018 28.6231 100.14 28.8796C100.258 29.1362 100.407 29.3406 100.582 29.4972C100.757 29.6537 100.998 29.7972 101.305 29.9233C101.616 30.0494 102.032 30.1538 102.561 30.2277V31.7106H90.0657V31.715Z" fill="#F5F5F7"/>
<path d="M10.3897 44.5218C9.40017 44.6305 9.33888 44.7131 9.33888 45.522V46.67C9.33888 47.1484 9.35639 47.6007 9.4352 47.9703C8.44571 48.1616 7.15849 48.4617 5.81874 48.4617C2.1979 48.4617 0 46.5352 0 43.7825C0 40.895 2.74081 39.1729 5.9282 39.1729C7.55254 39.1729 8.74781 39.4469 9.24256 39.5165C9.2732 40.0209 9.35201 40.8559 9.48336 41.7213L9.00613 41.8039C8.62522 40.6428 8.16112 40.147 7.15849 39.86C6.79072 39.7513 6.13835 39.6817 5.67863 39.6817C3.23993 39.6817 1.66375 41.1168 1.66375 43.6216C1.66375 45.796 2.96848 47.9572 6.05954 47.9572C6.60245 47.9572 7.0972 47.8616 7.41243 47.7268C7.74518 47.5615 7.95534 47.4137 7.95534 46.8527V45.7307C7.95534 44.7305 7.82837 44.6218 6.29597 44.5262V44.1304H10.3897V44.5218Z" fill="#F5F5F7"/>
<path d="M31.9965 48.2573V47.8746C33.0342 47.7659 33.1611 47.6268 32.9378 47.1093C32.7321 46.5744 32.4124 45.8916 32.0797 45.0306H28.634C28.38 45.6481 28.1392 46.1786 27.9159 46.7396C27.5657 47.6311 27.789 47.7398 29.0937 47.8746V48.2573H25.4116V47.8746C26.4142 47.7659 26.6725 47.6702 27.2285 46.4396L30.5254 39.2556L31.0377 39.1729C32.0403 41.5125 33.1392 44.1 34.1462 46.4657C34.6585 47.6572 34.7986 47.7659 35.9326 47.8746V48.2573H31.9965ZM30.4028 40.9646C29.8905 42.1431 29.352 43.3868 28.8748 44.4653H31.8564L30.4028 40.9646Z" fill="#F5F5F7"/>
<path d="M59.8511 48.2573V47.8746C61.1559 47.7659 61.204 47.6833 61.1909 46.2178L61.2084 40.6341C59.9037 43.1389 57.7977 47.0527 57.2417 48.2573H56.8257C56.2828 47.0136 54.4834 43.2476 53.2706 40.7733C52.9991 45.5611 52.9816 46.644 52.9816 46.9049C52.9991 47.6702 53.3975 47.779 54.479 47.8746V48.2573H50.7005V47.8746C51.6243 47.792 52.0053 47.6268 52.1366 46.8875C52.2329 46.2874 52.2461 45.7916 52.662 40.7993C52.7277 40.0862 52.5657 39.8557 51.1646 39.747V39.3643H53.9361L57.4562 46.3004L61.2347 39.3643H64.0236V39.747C62.6532 39.8818 62.4781 40.0079 62.5088 40.9646L62.5744 46.2178C62.6401 47.6833 62.6839 47.7485 64.0893 47.8746V48.2573H59.8511Z" fill="#F5F5F7"/>
<path d="M88.1348 46.083C88.0385 46.4396 87.6095 47.8485 87.4475 48.2573H79.7023V47.8746C81.1821 47.779 81.296 47.6572 81.296 46.5352V41.1298C81.296 39.9122 81.1208 39.8426 79.9256 39.747V39.3643H84.803C86.3003 39.3643 86.9221 39.3512 87.1147 39.3382C87.1322 39.6817 87.1935 40.708 87.2592 41.4299L86.782 41.4995C86.6375 41.0342 86.4799 40.7472 86.3047 40.4602C86.0508 40.0079 85.683 39.9122 84.7285 39.9122H83.2137C82.7189 39.9122 82.6883 39.9514 82.6883 40.3514V43.3738H84.4571C85.6524 43.3738 85.7312 43.1694 85.9238 42.2388H86.4186V45.0567H85.9238C85.718 44.0695 85.5911 43.9347 84.444 43.9347H82.6926V46.657C82.6926 47.6137 83.0429 47.6963 83.8398 47.7094H85.3196C86.2916 47.7094 86.4492 47.5876 86.7995 47.231C87.1016 46.944 87.4387 46.383 87.6576 45.9743L88.1348 46.083Z" fill="#F5F5F7"/>
<path d="M109.124 41.4429C108.853 40.5384 108.406 39.6513 106.909 39.6513C105.666 39.6513 105.236 40.4297 105.236 41.1429C105.236 42.0865 105.937 42.5649 107.259 43.1563C109.173 44.0043 110 44.6349 110 45.9351C110 47.3702 108.551 48.466 106.493 48.466C105.539 48.466 104.707 48.2312 104.054 48.0138C103.927 47.6311 103.735 46.7005 103.625 45.9612L104.12 45.8525C104.44 46.7701 105.14 47.9616 106.795 47.9616C107.942 47.9616 108.643 47.2789 108.643 46.3874C108.643 45.335 107.99 44.9088 106.589 44.2522C104.917 43.4738 103.975 42.8171 103.975 41.543C103.975 40.3253 105.153 39.1773 107.259 39.1773C108.152 39.1773 109.028 39.3817 109.361 39.4382C109.426 39.9296 109.488 40.4775 109.615 41.369L109.124 41.4429Z" fill="#F5F5F7"/>
</g>
</g>
</svg>
