<svg width="17" height="22" viewBox="0 0 17 22" fill="none" xmlns="http://www.w3.org/2000/svg">
<g id="Group">
<g id="Group_2">
<path id="Vector" d="M14.2836 1.93524L11.7011 0.449256C10.4701 -0.237083 8.87558 -0.161373 7.13229 0.845084C3.2361 3.09458 0.0776367 9.12946 0.0776367 14.3244C0.0776367 17.2648 1.09011 19.3048 2.67497 20.1146L5.15324 21.5491L14.2836 1.93524Z" fill="url(#paint0_linear_1022_978)"/>
<path id="Vector_2" d="M5.14136 17.7165L0.0871582 14.7985C0.19067 17.4839 1.1768 19.3492 2.67495 20.1147L5.15322 21.5491L6.11267 19.488L5.14136 17.7165Z" fill="url(#paint1_linear_1022_978)"/>
<path id="Vector_3" d="M16.7821 7.67419C16.7821 2.47927 13.6236 0.0915028 9.72743 2.34096C5.83123 4.59041 2.67273 10.6253 2.67273 15.8202C2.67273 21.0151 5.83123 23.4029 9.72743 21.1534C13.6236 18.9039 16.7821 12.8691 16.7821 7.67419Z" fill="url(#paint2_linear_1022_978)"/>
<path id="Vector_4" d="M9.72755 2.34096C5.83136 4.59041 2.67285 10.6253 2.67285 15.8202C2.67285 18.6509 3.61077 20.6478 5.0947 21.5155L15.0477 2.49852C13.7544 1.26665 11.8505 1.11523 9.72755 2.34096Z" fill="url(#paint3_linear_1022_978)"/>
<path id="Vector_5" d="M15.4253 8.45751C15.4253 4.26174 12.8743 2.33326 9.72749 4.15006C6.58067 5.96687 4.02966 10.841 4.02966 15.0368C4.02966 19.2325 6.58067 21.161 9.72749 19.3442C12.8743 17.5274 15.4253 12.6533 15.4253 8.45751Z" fill="url(#paint4_linear_1022_978)"/>
<path id="Vector_6" d="M12.5984 3.52649C13.3803 4.37568 13.8482 5.75597 13.8482 7.55245C13.8482 11.7482 11.2972 16.6223 8.15038 18.4391C7.10336 19.0436 6.12247 19.233 5.27942 19.0627C6.3236 20.1968 7.92797 20.3831 9.72746 19.3442C12.8743 17.5274 15.4252 12.6532 15.4252 8.4575C15.4252 5.65778 14.2892 3.86805 12.5984 3.52649Z" fill="url(#paint5_linear_1022_978)"/>
<g id="Group_3">
<path id="Vector_7" d="M11.937 12.5658C11.937 12.5647 11.9371 12.5635 11.9371 12.5623C11.9371 9.39148 8.45823 12.2265 8.45157 10.7751C8.45311 10.3734 8.72648 10.0152 9.14091 9.77588C9.46468 9.58897 9.90713 9.47862 10.3592 9.44549C10.9282 9.40377 11.4142 9.02015 11.576 8.47311C11.6019 8.38584 11.614 8.2993 11.6145 8.21491C11.6233 7.63303 11.0689 7.15599 10.4633 7.31691C10.2662 7.36929 10.0638 7.43937 9.85875 7.52775V6.44773C9.85875 6.44769 9.85875 6.44769 9.85875 6.44765V6.44034C9.85875 6.10639 9.49721 5.89765 9.20799 6.06462C8.8333 6.28097 8.60247 6.68075 8.60247 7.11345V7.12084V8.26566C8.54245 8.31344 8.48444 8.36311 8.42673 8.41304C7.48597 9.16323 6.85253 9.70661 6.68409 10.8317H6.63773V12.0397C6.63773 15.1605 10.1169 12.2494 10.1232 13.7389C10.1216 14.2036 9.80087 14.6395 9.29208 14.9332C8.8914 15.1646 8.3759 15.2751 7.8809 15.2509C7.85323 15.2496 7.82581 15.2501 7.7984 15.2504C7.32609 15.1857 6.89713 14.7963 6.65659 15.1897H6.47217V16.4907C6.47217 16.4907 6.48738 16.6585 6.49034 16.6731C6.5737 17.1017 6.96072 17.4401 7.43982 17.4156C7.80961 17.3967 8.20316 17.3093 8.60243 17.1525V18.3332C8.60243 18.6672 8.96397 18.8759 9.25319 18.709C9.62788 18.4926 9.85871 18.0928 9.85871 17.6601V16.4398C11.0489 15.5385 11.9369 14.1189 11.9369 12.5698C11.9371 12.5684 11.937 12.5672 11.937 12.5658Z" fill="url(#paint6_linear_1022_978)"/>
<g id="Group_4">
<path id="Vector_8" d="M8.59406 16.7348V17.0539C8.59406 17.2267 8.69126 17.3655 8.82485 17.4365L8.82429 17.437L9.84097 18.0212V15.9382C9.84097 15.9382 8.35546 16.5119 8.59406 16.7348Z" fill="url(#paint7_linear_1022_978)"/>
<path id="Vector_9" d="M11.411 9.88784C10.9187 9.55797 10.1624 9.74532 9.53642 9.8658L9.24243 10.3703L10.5793 11.1848L12.4121 10.4619L11.4107 9.88681C11.4107 9.88677 11.4109 9.88746 11.411 9.88784Z" fill="url(#paint8_linear_1022_978)"/>
<path id="Vector_10" d="M10.115 12.4561C10.115 12.9221 9.79376 13.3594 9.28368 13.6539C8.883 13.8853 8.3675 13.9958 7.8725 13.9716C7.25156 13.9413 6.68996 14.3383 6.50777 14.9327L6.50463 14.9429C6.36847 15.3872 6.58456 15.8305 6.95804 16.0261L6.95761 16.0262L7.96802 16.6093L12.2389 12.8752C12.0573 12.6769 10.115 11.6585 10.115 12.4561Z" fill="url(#paint9_linear_1022_978)"/>
<path id="Vector_11" d="M6.62927 10.753C6.62927 11.5781 6.87261 11.9813 7.23053 12.1559L7.23032 12.1561L8.24773 12.7451L9.73707 7.48653L8.59402 6.98633C7.38492 7.94896 6.62927 9.35502 6.62927 10.753Z" fill="url(#paint10_linear_1022_978)"/>
<path id="Vector_12" d="M9.64114 4.78977V4.79033C9.51352 4.71307 9.34732 4.70005 9.19967 4.78526C8.82494 5.00161 8.59412 5.40139 8.59412 5.83409V6.98629L9.65682 7.59903L10.4062 6.01666C10.3783 5.90138 10.6986 5.39946 10.6986 5.39946L9.64114 4.78977Z" fill="url(#paint11_linear_1022_978)"/>
<path id="Vector_13" d="M11.1882 6.15501L11.1884 6.15561C11.0311 6.05214 10.8412 5.99586 10.639 6.00797L10.913 6.86116L11.6504 7.10948C11.9941 6.89077 12.2221 6.74961 12.2221 6.74961L11.1882 6.15501Z" fill="url(#paint12_linear_1022_978)"/>
<g id="Group_5">
<path id="Vector_14" d="M10.9131 15.7658V16.9935C10.9131 17.4262 10.6823 17.826 10.3076 18.0423C10.0183 18.2093 9.6568 18.0006 9.6568 17.6666V16.4784C9.25754 16.6353 8.86399 16.7227 8.4942 16.7416C7.8571 16.7742 7.38045 16.1656 7.5674 15.5557L7.57054 15.5455C7.75273 14.9511 8.31433 14.5541 8.93527 14.5844C9.43027 14.6085 9.94577 14.498 10.3465 14.2667C10.8565 13.9722 11.1777 13.5348 11.1777 13.0689C11.1777 11.57 7.6921 14.4893 7.6921 11.3658C7.6921 9.96781 8.44775 8.56174 9.65684 7.59916V6.44695C9.65684 6.01425 9.88767 5.61447 10.2624 5.39813C10.5516 5.23115 10.9131 5.43985 10.9131 5.77384V6.86125C11.1182 6.77287 11.3206 6.70279 11.5177 6.65041C12.2086 6.46684 12.8332 7.11365 12.6304 7.79918C12.4685 8.34621 11.9825 8.72988 11.4135 8.77156C10.9614 8.80469 10.519 8.91503 10.1952 9.10195C9.77961 9.34188 9.50568 9.70153 9.50568 10.1046C9.50568 11.5656 12.9913 8.72189 12.9913 11.8958C12.9913 13.4449 12.1033 14.8644 10.9131 15.7658Z" fill="url(#paint13_linear_1022_978)"/>
</g>
<g id="Group_6">
<path id="Vector_15" d="M7.57053 15.5453L7.56739 15.5555C7.46809 15.8796 7.55605 16.2032 7.7559 16.4306L8.71844 14.5914C8.18709 14.6509 7.73119 15.0211 7.57053 15.5453Z" fill="url(#paint14_linear_1022_978)"/>
<path id="Vector_16" d="M11.5177 6.65028C11.3206 6.70266 11.1182 6.77274 10.9132 6.86113V5.77372C10.9132 5.43976 10.5516 5.23102 10.2624 5.398C9.88771 5.61435 9.65688 6.01413 9.65688 6.44682V7.59903C8.44779 8.56162 7.69214 9.96769 7.69214 11.3657C7.69214 13.0655 8.72442 12.9757 9.66544 12.7823L10.9025 10.4187C10.1606 10.5623 9.50576 10.7376 9.50576 10.1045C9.50576 9.70141 9.77969 9.34176 10.1953 9.10182C10.5191 8.91491 10.9615 8.80457 11.4136 8.77144C11.5523 8.76125 11.686 8.73044 11.8113 8.68223L12.5968 7.18146C12.4284 6.78585 11.9886 6.5252 11.5177 6.65028Z" fill="url(#paint15_linear_1022_978)"/>
</g>
</g>
</g>
</g>
</g>
<defs>
<linearGradient id="paint0_linear_1022_978" x1="4.82534" y1="11.9604" x2="11.5835" y2="0.254951" gradientUnits="userSpaceOnUse">
<stop stop-color="#BA5C25"/>
<stop offset="0.0487" stop-color="#C06127"/>
<stop offset="0.2766" stop-color="#DA7331"/>
<stop offset="0.4141" stop-color="#E37A34"/>
<stop offset="0.4731" stop-color="#E98335"/>
<stop offset="0.5708" stop-color="#F99D37"/>
<stop offset="0.5987" stop-color="#FFA538"/>
</linearGradient>
<linearGradient id="paint1_linear_1022_978" x1="3.09991" y1="13.5977" x2="3.09991" y2="17.8939" gradientUnits="userSpaceOnUse">
<stop offset="0.0319" stop-color="#8B451C"/>
<stop offset="1" stop-color="#8B451C" stop-opacity="0"/>
</linearGradient>
<linearGradient id="paint2_linear_1022_978" x1="9.72743" y1="28.942" x2="-1.93567" y2="8.74153" gradientUnits="userSpaceOnUse">
<stop stop-color="#FFA538"/>
<stop offset="1" stop-color="#F7E041"/>
</linearGradient>
<linearGradient id="paint3_linear_1022_978" x1="11.3977" y1="12.7114" x2="7.37673" y2="10.3899" gradientUnits="userSpaceOnUse">
<stop offset="0.0319" stop-color="white"/>
<stop offset="1" stop-color="white" stop-opacity="0"/>
</linearGradient>
<linearGradient id="paint4_linear_1022_978" x1="9.72749" y1="15.1772" x2="2.39875" y2="2.48385" gradientUnits="userSpaceOnUse">
<stop stop-color="#FFA538"/>
<stop offset="1" stop-color="#F7E041"/>
</linearGradient>
<linearGradient id="paint5_linear_1022_978" x1="10.3524" y1="20.7523" x2="10.3524" y2="2.3763" gradientUnits="userSpaceOnUse">
<stop stop-color="#BA5C25"/>
<stop offset="0.0487" stop-color="#C06127"/>
<stop offset="0.2766" stop-color="#DA7331"/>
<stop offset="0.4141" stop-color="#E37A34"/>
<stop offset="0.4731" stop-color="#E98335"/>
<stop offset="0.5708" stop-color="#F99D37"/>
<stop offset="0.5987" stop-color="#FFA538"/>
</linearGradient>
<linearGradient id="paint6_linear_1022_978" x1="9.20464" y1="24.1317" x2="9.20464" y2="5.06513" gradientUnits="userSpaceOnUse">
<stop offset="0.0319" stop-color="#8B451C"/>
<stop offset="1" stop-color="#8B451C" stop-opacity="0"/>
</linearGradient>
<linearGradient id="paint7_linear_1022_978" x1="9.62097" y1="16.6168" x2="8.82201" y2="18.0006" gradientUnits="userSpaceOnUse">
<stop stop-color="#BA5C25"/>
<stop offset="0.0487" stop-color="#C06127"/>
<stop offset="0.2766" stop-color="#DA7331"/>
<stop offset="0.4141" stop-color="#E37A34"/>
<stop offset="0.4731" stop-color="#E98335"/>
<stop offset="0.5708" stop-color="#F99D37"/>
<stop offset="0.5987" stop-color="#FFA538"/>
</linearGradient>
<linearGradient id="paint8_linear_1022_978" x1="9.69562" y1="10.9021" x2="12.6724" y2="9.18341" gradientUnits="userSpaceOnUse">
<stop stop-color="#BA5C25"/>
<stop offset="0.0487" stop-color="#C06127"/>
<stop offset="0.2766" stop-color="#DA7331"/>
<stop offset="0.4141" stop-color="#E37A34"/>
<stop offset="0.4731" stop-color="#E98335"/>
<stop offset="0.5708" stop-color="#F99D37"/>
<stop offset="0.5987" stop-color="#FFA538"/>
</linearGradient>
<linearGradient id="paint9_linear_1022_978" x1="9.77017" y1="13.1818" x2="7.90954" y2="16.4044" gradientUnits="userSpaceOnUse">
<stop stop-color="#BA5C25"/>
<stop offset="0.0487" stop-color="#C06127"/>
<stop offset="0.2766" stop-color="#DA7331"/>
<stop offset="0.4141" stop-color="#E37A34"/>
<stop offset="0.4731" stop-color="#E98335"/>
<stop offset="0.5708" stop-color="#F99D37"/>
<stop offset="0.5987" stop-color="#FFA538"/>
<stop offset="0.716" stop-color="#FCA038"/>
<stop offset="0.8491" stop-color="#F39336"/>
<stop offset="0.9894" stop-color="#E47C34"/>
<stop offset="1" stop-color="#E37A34"/>
</linearGradient>
<linearGradient id="paint10_linear_1022_978" x1="7.4544" y1="11.1524" x2="9.413" y2="7.75998" gradientUnits="userSpaceOnUse">
<stop stop-color="#BA5C25"/>
<stop offset="0.0487" stop-color="#C06127"/>
<stop offset="0.2766" stop-color="#DA7331"/>
<stop offset="0.4141" stop-color="#E37A34"/>
<stop offset="0.4731" stop-color="#E98335"/>
<stop offset="0.5708" stop-color="#F99D37"/>
<stop offset="0.5987" stop-color="#FFA538"/>
</linearGradient>
<linearGradient id="paint11_linear_1022_978" x1="9.10837" y1="6.58402" x2="10.0052" y2="5.0307" gradientUnits="userSpaceOnUse">
<stop stop-color="#BA5C25"/>
<stop offset="0.0487" stop-color="#C06127"/>
<stop offset="0.2766" stop-color="#DA7331"/>
<stop offset="0.4141" stop-color="#E37A34"/>
<stop offset="0.4731" stop-color="#E98335"/>
<stop offset="0.5708" stop-color="#F99D37"/>
<stop offset="0.5987" stop-color="#FFA538"/>
</linearGradient>
<linearGradient id="paint12_linear_1022_978" x1="10.8883" y1="6.70677" x2="12.2001" y2="5.94941" gradientUnits="userSpaceOnUse">
<stop stop-color="#BA5C25"/>
<stop offset="0.0487" stop-color="#C06127"/>
<stop offset="0.2766" stop-color="#DA7331"/>
<stop offset="0.4141" stop-color="#E37A34"/>
<stop offset="0.4731" stop-color="#E98335"/>
<stop offset="0.5708" stop-color="#F99D37"/>
<stop offset="0.5987" stop-color="#FFA538"/>
</linearGradient>
<linearGradient id="paint13_linear_1022_978" x1="10.2588" y1="27.1425" x2="10.2588" y2="7.82672" gradientUnits="userSpaceOnUse">
<stop stop-color="#FFA538"/>
<stop offset="1" stop-color="#F7E041"/>
</linearGradient>
<linearGradient id="paint14_linear_1022_978" x1="9.87838" y1="16.4586" x2="5.98283" y2="14.2095" gradientUnits="userSpaceOnUse">
<stop offset="0.0319" stop-color="white"/>
<stop offset="1" stop-color="white" stop-opacity="0"/>
</linearGradient>
<linearGradient id="paint15_linear_1022_978" x1="12.526" y1="10.8348" x2="8.16917" y2="8.31941" gradientUnits="userSpaceOnUse">
<stop offset="0.0319" stop-color="white"/>
<stop offset="1" stop-color="white" stop-opacity="0"/>
</linearGradient>
</defs>
</svg>
