<svg width="37" height="42" viewBox="0 0 37 42" fill="none" xmlns="http://www.w3.org/2000/svg">
<g id="Group 5">
<g id="Group">
<g id="Group_2">
<g id="XMLID_2_">
<g id="Group_3">
<path id="Vector" d="M36.9224 28.7749C36.9224 29.0502 36.911 29.3234 36.889 29.5945H36.8869C35.1551 28.5027 29.6807 26.2929 29.6807 26.2929C29.6807 26.2929 27.7807 24.6642 26.6745 23.1469C26.8134 22.6278 27.0578 21.4772 27.2824 20.3938C27.3138 20.2446 27.3451 20.0954 27.3743 19.9493C27.4548 19.9378 27.531 19.922 27.6052 19.9062C28.7939 19.6488 29.29 18.9269 29.4404 17.8708C33.9612 20.254 36.9224 24.2502 36.9224 28.7749Z" fill="#FF3233"/>
<path id="Vector_2" d="M34.1784 28.696C34.3059 28.7947 36.3406 30.372 36.4367 30.6662C36.5349 30.9615 35.7118 33.7051 35.2282 34.4995C35.2146 34.5226 35.1989 34.5468 35.1854 34.5667C33.6509 36.9814 31.1838 38.9853 28.1462 40.2998C29.6399 38.6007 30.4118 35.8003 30.4118 35.8003L29.4718 32.4515L31.6245 31.9503L32.0706 29.5082C31.5859 28.1653 30.4672 27.2333 30.4672 27.2333C30.2311 26.9107 29.9669 26.5902 29.6838 26.2949C29.6838 26.2949 35.1572 28.5058 36.89 29.5965H36.8921C36.8827 29.7384 36.8671 29.876 36.8493 30.0158L34.1784 28.696Z" fill="#434343"/>
<path id="Vector_3" d="M34.1785 28.696L36.8473 30.0137C36.6561 31.6088 36.0941 33.1209 35.2282 34.4995C35.7108 33.7052 36.5339 30.9615 36.4368 30.6663C36.3396 30.3721 34.3049 28.7948 34.1785 28.696Z" fill="#898C93"/>
<path id="Vector_4" d="M32.4884 10.074C33.8212 10.4827 35.458 11.647 35.3912 12.9594C35.3912 12.9594 35.0663 12.2943 34.2046 11.3864C33.3982 10.5342 32.5866 10.1234 32.4884 10.074Z" fill="#222529"/>
<path id="Vector_5" d="M33.5737 15.516C33.4295 15.5853 28.7155 17.8015 19.6918 17.8015V13.965C22.698 13.965 25.4806 13.5227 27.2145 12.7987C28.8722 12.1062 29.6681 11.4694 29.6817 11.2256C29.6953 10.9797 28.5714 10.7875 28.5714 10.7875L28.5536 10.7896C28.493 10.3062 28.4105 9.785 28.3207 9.24384C28.3092 9.1787 28.2977 9.1125 28.2852 9.04525L28.539 9.03894C35.95 9.53071 36.7188 12.785 35.1822 14.6964C34.2756 15.8249 32.7485 16.9545 29.4624 17.6901C29.3819 17.7079 29.3005 17.7258 29.2179 17.7437C28.7667 17.8403 28.2831 17.9286 27.765 18.0095C25.6905 18.3321 23.0573 18.5223 19.6907 18.5223V18.1766C27.8966 18.1745 31.5117 16.9009 33.5737 15.516ZM35.3922 12.9594C35.459 11.648 33.8223 10.4838 32.4894 10.074C32.4853 10.0719 32.4832 10.0719 32.48 10.0698C32.48 10.0698 32.4842 10.0719 32.4894 10.074C32.5876 10.1234 33.3982 10.5342 34.2056 11.3853C35.0673 12.2943 35.3922 12.9594 35.3922 12.9594Z" fill="#434343"/>
<path id="Vector_6" d="M31.2381 31.5574H31.2401C31.588 30.2891 31.7812 29.4253 31.7812 29.4253C31.7812 29.4253 31.2746 28.3304 30.4651 27.2302C30.4651 27.2302 31.5838 28.1623 32.0685 29.5052L31.6224 31.9472L29.4697 32.4484L30.4097 35.7973C30.4097 35.7973 29.6378 38.5976 28.1441 40.2968C27.8924 40.4071 27.6355 40.5111 27.3754 40.6099C28.4189 39.4236 29.3474 37.3272 30.0786 35.2688C30.065 35.2351 28.8837 32.2793 28.8837 32.2793L29.5762 32.067L31.2381 31.5574Z" fill="#222529"/>
<path id="Vector_7" d="M29.6796 35.275C29.642 35.3003 29.0623 35.6722 27.7076 34.964C26.2703 34.2127 26.2703 30.8912 26.2703 30.8912C26.2974 33.7766 25.5589 38.9328 24.6084 41.4516C24.5541 41.4652 24.4967 41.4768 24.4402 41.4894C24.9312 39.3773 25.7052 33.1829 25.912 28.4922C25.982 26.9244 25.9882 25.5269 25.8984 24.5034C26.3068 23.9307 26.5962 23.4411 26.6745 23.1469C27.7807 24.6652 29.6807 26.2929 29.6807 26.2929C29.9638 26.5882 30.228 26.9087 30.4641 27.2313C31.2736 28.3304 31.7802 29.4264 31.7802 29.4264C31.7802 29.4264 31.587 30.2901 31.2391 31.5584H31.237L29.5773 32.0701L26.8949 28.1707C26.9691 28.302 28.1672 30.4225 28.8847 32.2824C28.8847 32.2824 30.0651 35.2383 30.0797 35.2719C29.3485 37.3314 28.4199 39.4278 27.3764 40.613L27.3743 40.6151C27.2156 40.6761 27.0537 40.7349 26.8918 40.7917C27.7817 39.5307 28.8336 37.715 29.6796 35.275Z" fill="#434343"/>
<path id="Vector_8" d="M19.6918 17.8015C28.7155 17.8015 33.4285 15.5853 33.5736 15.516C31.5117 16.9009 27.8966 18.1745 19.6918 18.1745V17.8015Z" fill="#222529"/>
<path id="Vector_9" d="M28.5714 10.7864C28.5714 10.7864 29.6953 10.9787 29.6817 11.2246C29.6681 11.4683 28.8722 12.1051 27.2145 12.7976C25.4806 13.5216 22.699 13.964 19.6918 13.964V13.5962C26.5669 13.5962 28.6299 11.482 28.6299 11.482C28.61 11.2603 28.5849 11.0281 28.5536 10.7874L28.5714 10.7864Z" fill="#222529"/>
<path id="Vector_10" d="M26.8959 28.1696L29.5783 32.069L28.8858 32.2813C28.1682 30.4214 26.9701 28.3009 26.8959 28.1696Z" fill="#222529"/>
<path id="Vector_11" d="M29.4415 17.8698C29.291 18.9258 28.7949 19.6477 27.6062 19.9051C27.6062 19.9051 28.5149 19.1969 28.7259 18.9279C29.219 18.2985 29.219 17.7416 29.219 17.7416C29.3015 17.7237 29.383 17.7059 29.4634 17.688C29.4571 17.75 29.4488 17.8109 29.4415 17.8698Z" fill="#898C93"/>
<path id="Vector_12" d="M27.7075 34.964C29.0623 35.6722 29.6431 35.3003 29.6796 35.2751C28.8335 37.716 27.7817 39.5307 26.8918 40.7917C26.1585 41.0512 25.3939 41.274 24.6084 41.4526C25.5589 38.9339 26.2974 33.7766 26.2703 30.8922C26.2703 30.8912 26.2703 34.2127 27.7075 34.964Z" fill="#434343"/>
<path id="Vector_13" d="M29.2179 17.7426C29.2179 17.7426 29.2179 18.2995 28.7249 18.9289C28.5139 19.1979 27.6052 19.9061 27.6052 19.9061C27.531 19.9219 27.4548 19.9376 27.3743 19.9492C27.5174 19.2609 27.6407 18.6452 27.7065 18.2995C27.7441 18.1145 27.765 18.0084 27.765 18.0084C28.2841 17.9275 28.7667 17.8382 29.2179 17.7426Z" fill="#222529"/>
<path id="Vector_14" d="M20.6893 10.0529C24.9938 9.90579 27.4944 8.83609 28.188 8.49353C28.21 8.61332 28.2308 8.73101 28.2528 8.84975C27.484 9.31945 26.3601 9.6578 25.0032 9.92365C25.0032 9.92365 26.4322 10.2347 28.3207 9.24274C28.4105 9.7839 28.493 10.3051 28.5536 10.7885C28.5849 11.028 28.61 11.2603 28.6299 11.483C28.6299 11.483 26.5669 13.5972 19.6918 13.5972V10.0708C20.0344 10.0708 20.3665 10.0645 20.6893 10.0529Z" fill="#898C93"/>
<path id="Vector_15" d="M28.2862 9.04425C28.2977 9.1115 28.3092 9.1777 28.3217 9.24285C26.4332 10.2337 25.0043 9.92376 25.0043 9.92376C26.3611 9.65791 27.485 9.31956 28.2538 8.84985C28.2643 8.91395 28.2737 8.9791 28.2862 9.04425Z" fill="#434343"/>
<path id="Vector_16" d="M28.1024 8.02283C28.1316 8.18045 28.1609 8.33701 28.1881 8.49253C27.4945 8.83509 24.9939 9.90479 20.6893 10.0519C25.2634 9.58325 26.9607 8.6491 28.1024 8.02283Z" fill="#222529"/>
<path id="Vector_17" d="M25.2561 1.2074C25.3125 1.25889 26.2118 2.06905 26.427 2.91494C26.6474 3.79024 27.2564 6.80075 27.2564 6.80075L26.8929 2.69217C26.8918 2.69217 26.5868 1.91879 25.2561 1.2074ZM27.1613 2.36747C27.3023 3.93735 27.7337 6.04103 28.1014 8.02387C26.9597 8.64909 25.2623 9.58324 20.6883 10.0529C20.3656 10.0645 20.0334 10.0708 19.6918 10.0708V2.30653C22.7868 2.30653 23.0072 0.476056 23.0072 0.476056C22.3585 0.942606 21.6744 1.35136 19.6918 1.35136V1.10653C20.1023 1.1286 20.7197 1.11283 21.4299 0.901625C22.2415 0.664147 22.8254 0.276406 23.1701 0.00635363C23.7467 -0.0157129 24.4664 0.0105567 25.8661 1.02352C26.4813 1.4701 26.8939 1.97448 27.1613 2.36747Z" fill="#434343"/>
<path id="Vector_18" d="M27.766 18.0074C27.766 18.0074 27.7441 18.1136 27.7075 18.2985C27.7075 18.2985 27.2281 19.4901 26.8709 20.6271C26.4248 20.832 25.9715 20.8477 24.7066 20.8708C23.0687 20.9003 22.6029 21.2271 21.9563 21.246C21.3097 21.2659 20.6016 20.4926 19.6928 20.4926V18.5202C23.0583 18.5213 25.6916 18.33 27.766 18.0074Z" fill="#222529"/>
<path id="Vector_19" d="M27.7075 18.2985C27.6407 18.6442 27.5174 19.2599 27.3754 19.9482C27.3461 20.0943 27.3148 20.2435 27.2834 20.3927C27.133 20.4915 27.0035 20.5682 26.8708 20.627C27.2281 19.4911 27.7075 18.2985 27.7075 18.2985Z" fill="#898C93"/>
<path id="Vector_20" d="M26.8918 2.69216L27.2553 6.80074C27.2553 6.80074 26.6474 3.79023 26.4259 2.91493C26.2108 2.06904 25.3114 1.25889 25.255 1.2074C26.5868 1.91878 26.8918 2.69216 26.8918 2.69216Z" fill="#898C93"/>
<path id="Vector_21" d="M26.8709 20.627C27.0035 20.5682 27.133 20.4915 27.2835 20.3927C27.0589 21.4761 26.8145 22.6267 26.6755 23.1458C26.5972 23.441 26.3079 23.9307 25.8994 24.5023C25.6216 24.8922 25.2894 25.3188 24.9322 25.7496C24.2574 26.5577 23.4918 27.3804 22.817 27.9815C22.9288 27.8691 23.9681 26.8172 24.8695 25.3955C25.8232 23.8929 26.3068 23.0985 26.5491 21.8354C26.6139 21.4866 26.734 21.0621 26.8709 20.627Z" fill="white"/>
<path id="Vector_22" d="M21.0664 29.0165C20.5211 29.1468 19.954 29.1678 19.6918 29.1678V26.3181C20.423 26.3181 21.2931 25.7853 21.3474 25.7517C21.3066 25.7559 20.8021 25.8168 19.6918 25.8168V25.0161C21.1614 25.0161 22.5632 24.8133 22.5632 24.8133C21.8091 24.7997 20.6078 24.4865 20.4188 24.5023C20.2308 24.5181 19.6918 24.8795 19.6918 24.8795V23.2949C20.306 23.2949 20.5828 23.0491 20.7081 22.821C21.4779 22.6561 21.5625 22.1401 21.5625 22.1401C21.4299 22.323 21.2596 22.4564 20.8094 22.4385C20.8094 22.4385 20.4052 23.0091 19.6907 23.0091V20.4935C20.5995 20.4935 21.3077 21.2669 21.9542 21.2469C22.6008 21.227 23.0667 20.9012 24.7045 20.8718C25.9694 20.8487 26.4228 20.8329 26.8688 20.628C26.732 21.0631 26.6129 21.4876 26.546 21.8375C26.3037 23.1005 25.8211 23.8949 24.8664 25.3976C23.965 26.8193 22.9257 27.8711 22.8139 27.9836C22.8076 27.9878 22.8045 27.9909 22.8045 27.9909C22.371 28.3787 21.9772 28.6729 21.6722 28.8147C21.4884 28.9009 21.2795 28.9681 21.0664 29.0165ZM21.6367 22.1548C22.2624 22.3124 23.0009 23.358 23.1053 24.1839C23.1168 24.3373 23.1168 24.434 23.1168 24.434C23.121 24.3531 23.1168 24.2711 23.1053 24.1839C23.0855 23.8771 23.0333 23.3443 22.8881 22.9272C22.7042 22.4028 21.8874 22.2042 21.6367 22.1548Z" fill="#898C93"/>
<path id="Vector_23" d="M25.8984 24.5034C25.9882 25.5258 25.982 26.9244 25.912 28.4922C25.8357 29.0018 25.7396 29.4873 25.6383 29.9318C25.2999 31.4102 24.8957 32.4505 24.8957 32.4505C24.1352 31.3861 23.0479 30.4519 22.2248 29.8267C21.9177 29.5945 21.6482 29.4043 21.4466 29.2677C22.9559 28.7896 23.8083 27.6022 24.9301 25.7497C25.2894 25.3199 25.6216 24.8933 25.8984 24.5034Z" fill="white"/>
<path id="Vector_24" d="M25.6394 29.9318C25.7407 29.4873 25.8368 29.0018 25.913 28.4922C25.7062 33.1829 24.9312 39.3773 24.4413 41.4894C24.1269 41.5587 23.8083 41.6207 23.4876 41.6764C24.4893 38.8698 25.6059 30.2029 25.6394 29.9318Z" fill="#898C93"/>
<path id="Vector_25" d="M24.8957 32.4505C24.8957 32.4505 25.2999 31.4102 25.6383 29.9318C25.6049 30.2029 24.4893 38.8698 23.4855 41.6764C23.1534 41.7332 22.8191 41.7846 22.4786 41.8256C22.4786 41.8256 22.0368 37.3734 21.8958 35.6922C21.7527 34.0109 20.9578 31.8537 20.9578 31.8537L21.6889 30.4708L21.8958 30.2228C21.8968 30.2228 23.7373 31.3587 24.8957 32.4505Z" fill="white"/>
<path id="Vector_26" d="M22.816 27.9825C23.4908 27.3804 24.2564 26.5587 24.9312 25.7506C23.8094 27.6031 22.957 28.7905 21.4477 29.2686C21.2252 29.1173 21.0863 29.0291 21.0664 29.0165C21.2795 28.9671 21.4884 28.9009 21.6743 28.8137C21.9793 28.6718 22.3721 28.3776 22.8066 27.9898C22.8066 27.9898 22.8097 27.9867 22.816 27.9825Z" fill="#434343"/>
<path id="Vector_27" d="M22.8881 22.9282C23.0322 23.3454 23.0855 23.8781 23.1053 24.185C23.0019 23.359 22.2624 22.3125 21.6367 22.1559C21.8874 22.2042 22.7042 22.4028 22.8881 22.9282Z" fill="#434343"/>
<path id="Vector_28" d="M24.8956 32.4505C23.7362 31.3588 21.8968 30.2229 21.8968 30.2229L22.2248 29.8278C23.0489 30.453 24.1352 31.3871 24.8956 32.4505Z" fill="#222529"/>
<path id="Vector_29" d="M23.0071 0.474976C23.0071 0.474976 22.7867 2.30545 19.6918 2.30545V1.34923C21.6743 1.35028 22.3585 0.941525 23.0071 0.474976Z" fill="#222529"/>
<path id="Vector_30" d="M22.4796 41.8256C22.3073 41.8477 22.136 41.8666 21.9616 41.8844C21.9616 41.8844 21.7412 37.1149 21.4706 35.2172C21.2011 33.3174 20.5807 31.799 20.5807 31.799L21.6889 30.4697L20.9578 31.8526C20.9578 31.8526 21.7537 34.0098 21.8958 35.6911C22.0378 37.3734 22.4796 41.8256 22.4796 41.8256Z" fill="#222529"/>
<path id="Vector_31" d="M22.2258 29.8266L21.8978 30.2217L21.691 30.4697L20.5828 31.799H19.6928V29.5062C20.3728 29.5062 20.9483 29.4252 21.4487 29.2687C21.6492 29.4042 21.9187 29.5955 22.2258 29.8266Z" fill="#434343"/>
<path id="Vector_32" d="M21.9615 41.8845C21.8341 41.8981 21.7077 41.9097 21.5803 41.9181L21.5782 41.8845C21.6879 39.91 21.2711 35.5692 21.2711 35.5692C21.2711 35.5692 21.2283 40.8967 20.4835 41.9843C20.2214 41.9937 19.9581 41.9979 19.6918 41.9979V31.8H20.5817C20.5817 31.8 21.2011 33.3184 21.4717 35.2183C21.7411 37.1149 21.9615 41.8845 21.9615 41.8845Z" fill="#434343"/>
<path id="Vector_33" d="M22.5642 24.8144C22.5642 24.8144 21.1625 25.0172 19.6928 25.0172V24.8817C19.6928 24.8817 20.2328 24.5202 20.4198 24.5044C20.6089 24.4876 21.809 24.8008 22.5642 24.8144Z" fill="#434343"/>
<path id="Vector_34" d="M21.2711 35.5692C21.2711 35.5692 21.6879 39.91 21.5782 41.8845L21.5803 41.9181C21.2189 41.9496 20.8533 41.9727 20.4835 41.9853C21.2283 40.8967 21.2711 35.5692 21.2711 35.5692Z" fill="#898C93"/>
<path id="Vector_35" d="M21.5626 22.1412C21.5626 22.1412 21.479 22.6561 20.7081 22.8222C20.8157 22.6236 20.8095 22.4407 20.8095 22.4407C21.2597 22.4586 21.4299 22.3241 21.5626 22.1412Z" fill="#222529"/>
<path id="Vector_36" d="M21.0664 29.0165C21.0862 29.028 21.2252 29.1163 21.4476 29.2687C20.9473 29.4263 20.3728 29.5061 19.6918 29.5061V29.1678C19.954 29.1678 20.5211 29.1468 21.0664 29.0165Z" fill="#222529"/>
<path id="Vector_37" d="M19.6918 25.8169C20.8021 25.8169 21.3066 25.7559 21.3474 25.7517C21.293 25.7853 20.4229 26.3181 19.6918 26.3181V25.8169Z" fill="#898C93"/>
<path id="Vector_38" d="M20.7081 22.8221C20.5828 23.0501 20.3049 23.296 19.6918 23.296V23.0112C20.4052 23.0112 20.8105 22.4407 20.8105 22.4407C20.8105 22.4407 20.8157 22.6235 20.7081 22.8221Z" fill="#222529"/>
</g>
</g>
<g id="XMLID_1_">
<g id="Group_4">
<path id="Vector_39" d="M2.46112 28.7749C2.46112 29.0502 2.47261 29.3234 2.49455 29.5945H2.49663C4.22847 28.5027 9.70289 26.2929 9.70289 26.2929C9.70289 26.2929 11.6029 24.6642 12.7091 23.1469C12.5701 22.6278 12.3257 21.4772 12.1011 20.3938C12.0698 20.2446 12.0385 20.0954 12.0092 19.9493C11.9288 19.9378 11.8525 19.922 11.7784 19.9062C10.5897 19.6488 10.0935 18.9269 9.94313 17.8708C5.42238 20.254 2.46112 24.2502 2.46112 28.7749Z" fill="#FF3233"/>
<path id="Vector_40" d="M5.2051 28.696C5.07766 28.7947 3.04291 30.372 2.94681 30.6662C2.84863 30.9615 3.67172 33.7051 4.15534 34.4995C4.16892 34.5226 4.18459 34.5468 4.19817 34.5667C5.73259 36.9814 8.19978 38.9853 11.2373 40.2998C9.74361 38.6007 8.97169 35.8003 8.97169 35.8003L9.91178 32.4515L7.75899 31.9503L7.31297 29.5082C7.79764 28.1653 8.91633 27.2333 8.91633 27.2333C9.1524 26.9107 9.41667 26.5902 9.69974 26.2949C9.69974 26.2949 4.22637 28.5058 2.49348 29.5965H2.49139C2.50079 29.7384 2.51646 29.876 2.53422 30.0158L5.2051 28.696Z" fill="#434343"/>
<path id="Vector_41" d="M5.2051 28.696L2.53735 30.0137C2.7285 31.6088 3.29046 33.1209 4.15638 34.4995C3.67381 33.7052 2.85071 30.9615 2.94786 30.6663C3.04291 30.3721 5.07871 28.7948 5.2051 28.696Z" fill="#898C93"/>
<path id="Vector_42" d="M6.89413 10.074C5.5613 10.4827 3.92451 11.647 3.99136 12.9594C3.99136 12.9594 4.31621 12.2943 5.17796 11.3864C5.98538 10.5342 6.79699 10.1234 6.89413 10.074Z" fill="#222529"/>
<path id="Vector_43" d="M11.0629 9.24275C11.0744 9.1776 11.0859 9.1114 11.0984 9.04415L10.8446 9.03784C3.43358 9.52961 2.6648 12.7839 4.20132 14.6953C5.10797 15.8238 6.63509 16.9534 9.9212 17.689C10.0016 17.7068 10.0831 17.7247 10.1656 17.7426C10.6169 17.8392 11.1005 17.9275 11.6186 18.0084C13.693 18.331 16.3263 18.5212 19.6928 18.5212V18.1755C11.488 18.1755 7.87391 16.9009 5.81095 15.517C5.95509 15.5864 10.6691 17.8025 19.6928 17.8025V13.966C16.6867 13.966 13.904 13.5237 12.1701 12.7997C10.5124 12.1072 9.71647 11.4704 9.70289 11.2266C9.68931 10.9807 10.8132 10.7885 10.8132 10.7885L10.831 10.7906C10.8905 10.304 10.972 9.7839 11.0629 9.24275ZM3.99137 12.9594C3.92451 11.648 5.5613 10.4837 6.89413 10.0739C6.89831 10.0718 6.9004 10.0718 6.90353 10.0697C6.90353 10.0697 6.89935 10.0718 6.89413 10.0739C6.79595 10.1233 5.98539 10.5342 5.17796 11.3853C4.31622 12.2942 3.99137 12.9594 3.99137 12.9594Z" fill="#434343"/>
<path id="Vector_44" d="M8.14547 31.5574H8.14338C7.79555 30.2891 7.60231 29.4253 7.60231 29.4253C7.60231 29.4253 8.10891 28.3304 8.91843 27.2302C8.91843 27.2302 7.79973 28.1623 7.31506 29.5052L7.76108 31.9472L9.91387 32.4484L8.97379 35.7973C8.97379 35.7973 9.7457 38.5976 11.2394 40.2968C11.4911 40.4071 11.7481 40.5111 12.0082 40.6099C10.9647 39.4236 10.0361 37.3272 9.3049 35.2688C9.31848 35.2351 10.4999 32.2793 10.4999 32.2793L9.80733 32.067L8.14547 31.5574Z" fill="#222529"/>
<path id="Vector_45" d="M12.4876 28.1696C12.4134 28.3009 11.2153 30.4214 10.4978 32.2813C10.4978 32.2813 9.31742 35.2372 9.3028 35.2708C10.034 37.3303 10.9626 39.4267 12.0061 40.6119L12.0081 40.614C12.1669 40.675 12.3288 40.7338 12.4907 40.7906C11.6008 39.5296 10.55 37.7149 9.70286 35.2739C9.74046 35.2992 10.3202 35.6711 11.6749 34.9629C13.1122 34.2116 13.1122 30.8901 13.1122 30.8901C13.0851 33.7755 13.8236 38.9317 14.7741 41.4505C14.8284 41.4641 14.8858 41.4757 14.9423 41.4883C14.4513 39.3762 13.6773 33.1818 13.4705 28.4911C13.4005 26.9233 13.3942 25.5258 13.4841 24.5023C13.0757 23.9296 12.7863 23.44 12.708 23.1458C11.6018 24.6641 9.70181 26.2918 9.70181 26.2918C9.41874 26.5871 9.15448 26.9076 8.91841 27.2302C8.10889 28.3293 7.60229 29.4253 7.60229 29.4253C7.60229 29.4253 7.79553 30.289 8.14336 31.5573H8.14545L9.80522 32.069L12.4876 28.1696Z" fill="#434343"/>
<path id="Vector_46" d="M19.6918 17.8015C10.668 17.8015 5.95507 15.5853 5.80988 15.516C7.87179 16.9009 11.4869 18.1745 19.6918 18.1745V17.8015Z" fill="#222529"/>
<path id="Vector_47" d="M10.8122 10.7864C10.8122 10.7864 9.68826 10.9787 9.70184 11.2246C9.71542 11.4683 10.5114 12.1051 12.169 12.7976C13.903 13.5216 16.6846 13.964 19.6918 13.964V13.5962C12.8166 13.5962 10.7537 11.482 10.7537 11.482C10.7735 11.2603 10.7986 11.0281 10.8299 10.7874L10.8122 10.7864Z" fill="#222529"/>
<path id="Vector_48" d="M12.4876 28.1696L9.80524 32.069L10.4978 32.2813C11.2154 30.4214 12.4134 28.3009 12.4876 28.1696Z" fill="#222529"/>
<path id="Vector_49" d="M9.9421 17.8698C10.0925 18.9258 10.5887 19.6477 11.7773 19.9051C11.7773 19.9051 10.8686 19.1969 10.6576 18.9279C10.1646 18.2985 10.1646 17.7416 10.1646 17.7416C10.0821 17.7237 10.0006 17.7059 9.92017 17.688C9.92643 17.75 9.93479 17.8109 9.9421 17.8698Z" fill="#898C93"/>
<path id="Vector_50" d="M11.676 34.964C10.3212 35.6722 9.74048 35.3003 9.70392 35.2751C10.55 37.716 11.6018 39.5307 12.4918 40.7917C13.225 41.0512 13.9896 41.274 14.7751 41.4526C13.8246 38.9339 13.0861 33.7766 13.1133 30.8922C13.1133 30.8912 13.1133 34.2127 11.676 34.964Z" fill="#434343"/>
<path id="Vector_51" d="M10.1656 17.7426C10.1656 17.7426 10.1656 18.2995 10.6586 18.9289C10.8696 19.1979 11.7784 19.9061 11.7784 19.9061C11.8525 19.9219 11.9288 19.9376 12.0092 19.9492C11.8661 19.2609 11.7428 18.6452 11.677 18.2995C11.6394 18.1145 11.6185 18.0084 11.6185 18.0084C11.0994 17.9275 10.6168 17.8382 10.1656 17.7426Z" fill="#222529"/>
<path id="Vector_52" d="M18.6942 10.0529C14.3897 9.90579 11.8891 8.83609 11.1955 8.49353C11.1736 8.61332 11.1527 8.73101 11.1307 8.84975C11.8995 9.31945 13.0234 9.6578 14.3803 9.92365C14.3803 9.92365 12.9514 10.2347 11.0628 9.24274C10.973 9.7839 10.8905 10.3051 10.8299 10.7885C10.7986 11.028 10.7735 11.2603 10.7537 11.483C10.7537 11.483 12.8156 13.5972 19.6918 13.5972V10.0708C19.3491 10.0708 19.017 10.0645 18.6942 10.0529Z" fill="#898C93"/>
<path id="Vector_53" d="M11.0973 9.04425C11.0859 9.1115 11.0744 9.1777 11.0618 9.24285C12.9504 10.2337 14.3793 9.92376 14.3793 9.92376C13.0224 9.65791 11.8985 9.31956 11.1297 8.84985C11.1193 8.91395 11.1088 8.9791 11.0973 9.04425Z" fill="#434343"/>
<path id="Vector_54" d="M11.2812 8.02283C11.252 8.18045 11.2227 8.33701 11.1956 8.49253C11.8891 8.83509 14.3897 9.90479 18.6943 10.0519C14.1203 9.58325 12.4229 8.6491 11.2812 8.02283Z" fill="#222529"/>
<path id="Vector_55" d="M14.1275 1.2074C14.0711 1.25889 13.1718 2.06905 12.9566 2.91494C12.7362 3.79024 12.1273 6.80075 12.1273 6.80075L12.4908 2.69217C12.4918 2.69217 12.7968 1.91879 14.1275 1.2074ZM12.2213 2.36747C12.0803 3.93735 11.6489 6.04103 11.2812 8.02387C12.4229 8.64909 14.1202 9.58324 18.6943 10.0529C19.017 10.0645 19.3492 10.0708 19.6907 10.0708V2.30653C16.5958 2.30653 16.3754 0.476056 16.3754 0.476056C17.024 0.942606 17.7082 1.35136 19.6907 1.35136V1.10653C19.2802 1.1286 18.6629 1.11283 17.9526 0.901625C17.141 0.664147 16.5571 0.276406 16.2124 0.00635363C15.6359 -0.0157129 14.9162 0.0105567 13.5165 1.02352C12.9023 1.4701 12.4897 1.97448 12.2213 2.36747Z" fill="#434343"/>
<path id="Vector_56" d="M11.6175 18.0074C11.6175 18.0074 11.6394 18.1136 11.676 18.2985C11.676 18.2985 12.1554 19.4901 12.5127 20.6271C12.9587 20.832 13.412 20.8477 14.6769 20.8708C16.3148 20.9003 16.7806 21.2271 17.4272 21.246C18.0738 21.2659 18.782 20.4926 19.6907 20.4926V18.5202C16.3252 18.5213 13.6919 18.33 11.6175 18.0074Z" fill="#222529"/>
<path id="Vector_57" d="M11.676 18.2985C11.7429 18.6442 11.8661 19.2599 12.0082 19.9482C12.0374 20.0943 12.0688 20.2435 12.1001 20.3927C12.2505 20.4915 12.38 20.5682 12.5127 20.627C12.1555 19.4911 11.676 18.2985 11.676 18.2985Z" fill="#898C93"/>
<path id="Vector_58" d="M12.4918 2.69216L12.1283 6.80074C12.1283 6.80074 12.7362 3.79023 12.9577 2.91493C13.1728 2.06904 14.0722 1.25889 14.1286 1.2074C12.7968 1.91878 12.4918 2.69216 12.4918 2.69216Z" fill="#898C93"/>
<path id="Vector_59" d="M12.5127 20.627C12.38 20.5682 12.2505 20.4915 12.1001 20.3927C12.3247 21.4761 12.5691 22.6267 12.708 23.1458C12.7864 23.441 13.0757 23.9307 13.4841 24.5023C13.762 24.8922 14.0941 25.3188 14.4513 25.7496C15.1261 26.5577 15.8918 27.3804 16.5665 27.9815C16.4548 27.8691 15.4155 26.8172 14.514 25.3955C13.5604 23.8929 13.0767 23.0985 12.8344 21.8354C12.7686 21.4866 12.6495 21.0621 12.5127 20.627Z" fill="white"/>
<path id="Vector_60" d="M17.7458 22.1548C17.1201 22.3124 16.3816 23.358 16.2772 24.1839C16.2657 24.3373 16.2657 24.434 16.2657 24.434C16.2615 24.3531 16.2657 24.2711 16.2772 24.1839C16.297 23.8771 16.3493 23.3443 16.4945 22.9272C16.6793 22.4028 17.4962 22.2042 17.7458 22.1548ZM18.3172 29.0165C18.8624 29.1468 19.4296 29.1678 19.6918 29.1678V26.3181C18.9606 26.3181 18.0905 25.7853 18.0362 25.7517C18.0769 25.7559 18.5814 25.8168 19.6918 25.8168V25.0161C18.2221 25.0161 16.8204 24.8133 16.8204 24.8133C17.5745 24.7997 18.7757 24.4865 18.9648 24.5023C19.1528 24.5181 19.6918 24.8795 19.6918 24.8795V23.2949C19.0776 23.2949 18.8008 23.0491 18.6754 22.821C17.9056 22.6561 17.821 22.1401 17.821 22.1401C17.9537 22.323 18.1239 22.4564 18.5741 22.4385C18.5741 22.4385 18.9784 23.0091 19.6928 23.0091V20.4935C18.7841 20.4935 18.0759 21.2669 17.4293 21.2469C16.7827 21.227 16.3169 20.9012 14.6791 20.8718C13.4141 20.8487 12.9608 20.8329 12.5148 20.628C12.6516 21.0631 12.7707 21.4876 12.8375 21.8375C13.0799 23.1005 13.5624 23.8949 14.5171 25.3976C15.4186 26.8193 16.4579 27.8711 16.5697 27.9836C16.5759 27.9878 16.5791 27.9909 16.5791 27.9909C17.0125 28.3787 17.4063 28.6729 17.7113 28.8147C17.8952 28.9009 18.1041 28.9681 18.3172 29.0165Z" fill="#898C93"/>
<path id="Vector_61" d="M13.4841 24.5034C13.3943 25.5258 13.4005 26.9244 13.4705 28.4922C13.5468 29.0018 13.6429 29.4873 13.7442 29.9318C14.0826 31.4102 14.4869 32.4505 14.4869 32.4505C15.2473 31.3861 16.3347 30.4519 17.1577 29.8267C17.4648 29.5945 17.7343 29.4043 17.9359 29.2677C16.4266 28.7896 15.5742 27.6022 14.4524 25.7497C14.0941 25.3199 13.762 24.8933 13.4841 24.5034Z" fill="white"/>
<path id="Vector_62" d="M13.7442 29.9318C13.6429 29.4873 13.5468 29.0018 13.4705 28.4922C13.6773 33.1829 14.4524 39.3773 14.9423 41.4894C15.2567 41.5587 15.5753 41.6207 15.8959 41.6764C14.8942 38.8698 13.7776 30.2029 13.7442 29.9318Z" fill="#898C93"/>
<path id="Vector_63" d="M14.4879 32.4505C14.4879 32.4505 14.0837 31.4102 13.7452 29.9318C13.7787 30.2029 14.8942 38.8698 15.898 41.6764C16.2302 41.7332 16.5644 41.7846 16.905 41.8256C16.905 41.8256 17.3468 37.3734 17.4878 35.6922C17.6309 34.0109 18.4258 31.8537 18.4258 31.8537L17.6946 30.4708L17.4878 30.2228C17.4857 30.2228 15.6463 31.3587 14.4879 32.4505Z" fill="white"/>
<path id="Vector_64" d="M16.5676 27.9825C15.8928 27.3804 15.1272 26.5587 14.4524 25.7506C15.5742 27.6031 16.4266 28.7905 17.9359 29.2686C18.1584 29.1173 18.2973 29.0291 18.3172 29.0165C18.1041 28.9671 17.8952 28.9009 17.7093 28.8137C17.4043 28.6718 17.0115 28.3776 16.577 27.9898C16.577 27.9898 16.5728 27.9867 16.5676 27.9825Z" fill="#434343"/>
<path id="Vector_65" d="M16.4955 22.9282C16.3514 23.3454 16.2981 23.8781 16.2783 24.185C16.3817 23.359 17.1212 22.3125 17.7469 22.1559C17.4962 22.2042 16.6794 22.4028 16.4955 22.9282Z" fill="#434343"/>
<path id="Vector_66" d="M14.4879 32.4505C15.6473 31.3588 17.4868 30.2229 17.4868 30.2229L17.1588 29.8278C16.3347 30.453 15.2483 31.3871 14.4879 32.4505Z" fill="#222529"/>
<path id="Vector_67" d="M16.3754 0.474976C16.3754 0.474976 16.5958 2.30545 19.6907 2.30545V1.34923C17.7092 1.35028 17.0251 0.941525 16.3754 0.474976Z" fill="#222529"/>
<path id="Vector_68" d="M16.9039 41.8256C17.0763 41.8477 17.2476 41.8666 17.422 41.8844C17.422 41.8844 17.6424 37.1149 17.913 35.2172C18.1824 33.3174 18.8029 31.799 18.8029 31.799L17.6946 30.4697L18.4258 31.8526C18.4258 31.8526 17.6299 34.0098 17.4878 35.6911C17.3458 37.3734 16.9039 41.8256 16.9039 41.8256Z" fill="#222529"/>
<path id="Vector_69" d="M17.1577 29.8266L17.4857 30.2217L17.6925 30.4697L18.8008 31.799H19.6907V29.5062C19.0107 29.5062 18.4352 29.4252 17.9349 29.2687C17.7343 29.4042 17.4648 29.5955 17.1577 29.8266Z" fill="#434343"/>
<path id="Vector_70" d="M17.422 41.8845C17.5494 41.8981 17.6758 41.9097 17.8033 41.9181L17.8053 41.8845C17.6957 39.91 18.1124 35.5692 18.1124 35.5692C18.1124 35.5692 18.1553 40.8967 18.9 41.9843C19.1622 41.9937 19.4254 41.9979 19.6918 41.9979V31.8H18.8018C18.8018 31.8 18.1824 33.3184 17.9119 35.2183C17.6424 37.1149 17.422 41.8845 17.422 41.8845Z" fill="#434343"/>
<path id="Vector_71" d="M16.8193 24.8144C16.8193 24.8144 18.2211 25.0172 19.6908 25.0172V24.8817C19.6908 24.8817 19.1507 24.5202 18.9638 24.5044C18.7747 24.4876 17.5745 24.8008 16.8193 24.8144Z" fill="#434343"/>
<path id="Vector_72" d="M18.1114 35.5692C18.1114 35.5692 17.6947 39.91 17.8043 41.8845L17.8022 41.9181C18.1637 41.9496 18.5292 41.9727 18.899 41.9853C18.1553 40.8967 18.1114 35.5692 18.1114 35.5692Z" fill="#222529"/>
<path id="Vector_73" d="M17.821 22.1412C17.821 22.1412 17.9046 22.6561 18.6755 22.8222C18.5679 22.6236 18.5741 22.4407 18.5741 22.4407C18.124 22.4586 17.9537 22.3241 17.821 22.1412Z" fill="#222529"/>
<path id="Vector_74" d="M18.3172 29.0165C18.2973 29.028 18.1584 29.1163 17.9359 29.2687C18.4362 29.4263 19.0107 29.5061 19.6918 29.5061V29.1678C19.4296 29.1678 18.8624 29.1468 18.3172 29.0165Z" fill="#222529"/>
<path id="Vector_75" d="M19.6918 25.8169C18.5814 25.8169 18.0769 25.7559 18.0362 25.7517C18.0905 25.7853 18.9606 26.3181 19.6918 26.3181V25.8169Z" fill="#898C93"/>
<path id="Vector_76" d="M18.6744 22.8221C18.7998 23.0501 19.0776 23.296 19.6908 23.296V23.0112C18.9773 23.0112 18.5721 22.4407 18.5721 22.4407C18.5721 22.4407 18.5668 22.6235 18.6744 22.8221Z" fill="#222529"/>
</g>
</g>
</g>
<path id="Vector_77" d="M17.0126 24.9206C17.3729 25.0898 17.2716 25.3913 18.007 25.3903C18.7413 25.3892 19.5038 25.2757 19.5038 25.2757L21.2837 25.074L22.3794 24.8565L22.3355 24.8397C22.3355 24.8397 21.0476 25.0173 19.6928 25.0173C18.3381 25.0173 16.8486 24.8197 16.8486 24.8197L17.0126 24.9206Z" fill="white"/>
<path id="Vector_78" d="M20.9233 25.1138C20.6162 25.1138 20.2099 25.1117 19.7994 25.1044C18.97 25.0897 18.3318 25.0634 16.9489 24.8322C16.9468 24.8322 16.9436 24.8312 16.9415 24.8312H16.8663L17.0126 24.9205C17.3729 25.0897 17.2716 25.3913 18.007 25.3902C18.7413 25.3892 19.5038 25.2757 19.5038 25.2757L20.9233 25.1138Z" fill="#222529"/>
<path id="Vector_79" d="M20.3572 21.6599C20.5358 21.6368 20.6298 22.385 20.3812 22.3839C20.1316 22.3839 20.1075 21.6915 20.3572 21.6599Z" fill="white"/>
<path id="Vector_80" d="M21.128 25.26C21.2972 25.0719 21.7485 25.1885 21.5625 25.3104C21.3766 25.4323 20.9901 25.4123 21.128 25.26Z" fill="white"/>
<g id="Group_5">
<path id="Vector_81" d="M20.1827 23.8035C20.4115 23.5629 20.8606 23.6406 21.3359 23.8645C21.8111 24.0883 22.7418 24.434 22.7011 24.5359C22.6812 24.5853 22.4483 24.5496 22.4128 24.5475C22.1987 24.5317 21.9845 24.5054 21.7725 24.476C21.5239 24.4424 21.2763 24.4088 21.0298 24.3636C20.8303 24.3279 20.6089 24.3016 20.4198 24.2217C20.2924 24.1692 20.0375 23.9569 20.1827 23.8035Z" fill="#222529"/>
<path id="Vector_82" d="M19.1998 23.8035C18.971 23.5629 18.5219 23.6406 18.0466 23.8645C17.5714 24.0883 16.6407 24.434 16.6814 24.5359C16.7013 24.5853 16.9342 24.5496 16.9697 24.5475C17.1838 24.5317 17.398 24.5054 17.61 24.476C17.8586 24.4424 18.1062 24.4088 18.3527 24.3636C18.5522 24.3279 18.7736 24.3016 18.9616 24.2217C19.0912 24.1692 19.346 23.9569 19.1998 23.8035Z" fill="#222529"/>
</g>
<path id="Vector_83" d="M18.3172 25.2757C19.0275 25.3367 21.7077 25.0267 22.5643 24.8145C22.5643 24.8145 21.8205 25.1349 20.7092 25.1938C19.5978 25.2526 18.1741 25.5973 18.1741 25.5973L18.3172 25.2757Z" fill="#222529"/>
<path id="Vector_84" d="M16.8193 24.8145C16.8193 24.8145 17.0909 25.0645 17.4481 25.3325L17.5923 25.2232L16.9426 24.8302L16.8193 24.8145Z" fill="#222529"/>
<path id="Vector_85" d="M18.9397 26.1952C19.5967 26.1342 21.0632 25.9609 21.0987 26.0838C21.1343 26.2057 20.2245 26.5924 19.7189 26.5924C19.2134 26.5924 18.9397 26.1952 18.9397 26.1952Z" fill="#434343"/>
<g id="Group_6">
<path id="Vector_86" d="M22.1412 24.7871C22.2248 24.742 22.5476 24.7598 22.6081 24.8103C22.6687 24.8607 22.9696 25.2222 22.7868 25.2453C22.7105 25.2547 22.1412 24.7871 22.1412 24.7871Z" fill="#222529"/>
<path id="Vector_87" d="M17.2423 24.7871C17.1588 24.742 16.836 24.7598 16.7754 24.8103C16.7149 24.8607 16.414 25.2222 16.5968 25.2453C16.672 25.2547 17.2423 24.7871 17.2423 24.7871Z" fill="#222529"/>
</g>
<g id="Group_7">
<path id="Vector_88" d="M18.3287 25.4039C18.244 25.6392 15.9147 27.6746 15.334 28.2441V28.2462C15.1867 28.3891 15.0969 28.4774 15.0969 28.4774C15.0864 28.4774 14.6508 28.4753 14.3563 28.0634C14.0565 27.6494 14.2414 27.4413 14.2414 27.4413L14.4012 27.3257H14.4033L17.7176 24.8312C18.0508 24.7187 18.431 25.1128 18.3287 25.4039Z" fill="#434343"/>
<path id="Vector_89" d="M15.3329 28.2441V28.2462C15.1856 28.3892 15.0958 28.4774 15.0958 28.4774C15.0854 28.4774 14.6498 28.4753 14.3552 28.0634C14.0763 27.6767 14.2184 27.4708 14.2382 27.4435L14.2403 27.4414L14.4001 27.3258H14.4022C14.725 27.2554 15.3078 27.8984 15.3329 28.2441Z" fill="white"/>
<path id="Vector_90" d="M15.0958 28.4774C15.0854 28.4774 14.6498 28.4753 14.3552 28.0634C14.0763 27.6767 14.2184 27.4707 14.2382 27.4434L14.2403 27.4413C14.3448 27.3657 14.6843 27.5411 14.8618 27.7954C15.0363 28.0508 15.1762 28.3545 15.0958 28.4774Z" fill="#FF3233"/>
</g>
<path id="Vector_91" d="M18.3172 25.2758L15.3329 27.7892C15.3329 27.7892 15.4123 27.9122 15.3977 28.054L18.3172 25.447L18.4081 25.2821L18.3172 25.2758Z" fill="#222529"/>
<path id="Vector_92" d="M14.7584 27.2312L17.6863 25.0172L15.0415 27.3678L14.7584 27.2312Z" fill="#898C93"/>
<path id="Vector_93" d="M29.7225 34.903L27.8684 30.5338C27.8684 30.5338 28.7176 33.4277 29.0414 33.9216C29.3652 34.4144 29.7225 34.903 29.7225 34.903Z" fill="#898C93"/>
<path id="Vector_94" d="M8.13086 29.1679C8.13086 29.1679 9.51696 26.8687 9.70393 26.6438C9.89091 26.419 9.4052 27.3479 9.12213 27.9826C8.83906 28.6162 8.13086 29.1679 8.13086 29.1679Z" fill="#898C93"/>
</g>
<path id="Vector_95" d="M12.523 26.2403C12.0206 25.8284 11.6101 25.2683 11.5098 24.6242C11.3939 23.8907 11.6853 23.1625 11.843 22.4364C12.0008 21.7093 11.9788 20.8371 11.4064 20.3653C10.7233 19.8031 9.56071 20.07 8.98726 19.3954C8.58721 18.9236 8.67808 18.207 8.90161 17.6291C9.12619 17.0501 9.46462 16.4974 9.49804 15.8774C9.53982 15.1093 9.08649 14.3779 8.47857 13.9114C7.86961 13.4448 7.12381 13.2021 6.38323 13.0088C5.81605 12.8606 5.22275 12.7271 4.75898 12.3646C4.63573 12.2679 4.52918 12.1545 4.43726 12.0294C4.57723 12.3709 4.79554 12.6788 5.05772 12.9373C5.34079 13.2158 5.66877 13.448 6.02496 13.6224C6.42606 13.8179 6.86059 13.9376 7.26482 14.1257C7.66906 14.3138 8.05972 14.5849 8.26027 14.9853C8.50364 15.4718 8.4253 16.0655 8.2164 16.5678C8.24878 16.1706 8.02316 15.7891 7.7192 15.5338C7.05174 14.9716 5.99049 14.6795 5.15277 14.5219C4.77674 14.4504 4.38608 14.4074 4.04765 14.2266C3.70922 14.0459 3.43033 13.6844 3.48151 13.303C3.30081 14.0396 3.45227 14.8308 3.78338 15.5117C3.9996 15.9573 4.28894 16.3608 4.61066 16.7348C4.9188 17.0942 5.19246 17.2655 5.59252 17.4914C6.29967 17.8907 7.17395 18.1692 7.56983 18.9436C7.74949 19.2967 7.79963 19.7159 8.03883 20.0322C8.28638 20.3601 8.67808 20.5082 9.06665 20.6648C9.33196 20.7457 9.57847 20.8655 9.79156 21.0389C9.58056 20.8739 9.32465 20.7678 9.06665 20.6648C8.57885 20.5145 8.02942 20.4935 7.51342 20.4988C6.6475 20.5082 5.70742 20.5334 5.00758 20.0207C4.36624 19.551 4.10719 18.7713 3.80845 18.0095C3.55985 17.5891 3.18382 17.2476 2.72422 17.0995C2.11213 16.9009 1.36737 17.0995 1.00178 17.6312C0.754229 17.9905 0.697824 18.4476 0.705136 18.8848C0.712448 19.3376 0.784521 19.7979 1.00074 20.1951C1.30888 20.7594 1.88337 21.1387 2.49129 21.3436C3.67162 21.7408 5.15382 21.7849 6.3895 21.7461C6.7154 21.7355 7.04234 21.7114 7.36823 21.703C8.04196 21.6851 8.83685 21.6778 9.43224 22.0392C10.2867 22.5562 9.93779 23.7594 9.9545 24.5874C9.96495 25.1559 10.0516 25.7411 10.3859 26.2129C11.0199 27.1072 12.2159 27.5937 13.2772 27.6588C13.6532 27.682 14.0762 27.5916 14.188 27.2017C13.6041 26.9275 13.0202 26.6469 12.523 26.2403Z" fill="white"/>
<path id="Vector_96" d="M8.15892 22.3734C8.2007 22.3797 8.24353 22.3861 8.28531 22.3934C8.51093 22.4354 8.74073 22.5121 8.90472 22.674C9.14496 22.9114 9.18466 23.2572 9.20555 23.5776C9.23062 23.9465 9.2233 24.3374 9.41132 24.6547C9.36014 24.5685 9.24106 24.5002 9.18152 24.4088C9.11154 24.3006 9.0614 24.1819 9.01649 24.061C8.92666 23.8204 8.86503 23.5661 8.73864 23.3402C8.42319 22.779 7.71186 22.7412 7.14259 22.8505C6.65688 22.943 6.17953 23.1048 5.70113 23.2235C5.18826 23.3507 4.65555 23.42 4.12806 23.4558C3.87737 23.4726 3.60893 23.4768 3.39689 23.3402C3.2214 23.2277 3.10964 23.0218 3.10859 22.8127C3.1065 22.3524 3.38122 22.3072 3.73114 22.3724C4.3401 22.4848 4.94907 22.4701 5.5643 22.4502C6.01136 22.4354 6.45737 22.4134 6.90339 22.3829C7.31912 22.3577 7.7432 22.3062 8.15892 22.3734Z" fill="white"/>
</g>
</svg>
