<svg width="11" height="20" viewBox="0 0 11 20" fill="none" xmlns="http://www.w3.org/2000/svg">
<g id="&#208;&#152;&#208;&#186;&#208;&#190;&#208;&#189;&#208;&#186;&#208;&#184;/&#208;&#161;&#208;&#190;&#209;&#134;&#208;&#161;&#208;&#181;&#209;&#130;&#208;&#184;">
<path id="Vector" d="M9.61806 0H6.83124C4.00783 0 1.15887 2.12586 1.15887 6.87523C1.15887 9.33531 2.1814 11.2513 4.05583 12.3409L0.625092 18.6726C0.462428 18.9721 0.458175 19.3114 0.613676 19.5804C0.765499 19.8431 1.04313 20 1.35605 20H3.09153C3.48578 20 3.79318 19.8057 3.9406 19.4653L7.1573 13.05H7.39206V19.2004C7.39206 19.6339 7.75076 20 8.17535 20H9.69143C10.1676 20 10.5 19.661 10.5 19.1756V0.875117C10.5001 0.359883 10.1374 0 9.61806 0ZM7.39206 10.2002H6.97793C5.37216 10.2002 4.41353 8.86375 4.41353 6.62512C4.41353 3.84156 5.62451 2.8498 6.75788 2.8498H7.39206V10.2002Z" fill="white"/>
</g>
</svg>
